<svg width="40" height="40" viewBox="0 0 40 40" fill="none" xmlns="http://www.w3.org/2000/svg">
<path d="M40 19.9999C40 25.5228 37.7614 30.5228 34.1421 34.1421C30.5228 37.7614 25.5228 39.9999 20 39.9999C14.4772 39.9999 9.47715 37.7614 5.85786 34.1421C2.23858 30.5228 0 25.5228 0 19.9999C0 14.4771 2.23858 9.47709 5.85786 5.8578C9.47715 2.23852 14.4772 -6.10352e-05 20 -6.10352e-05C25.5228 -6.10352e-05 30.5228 2.23852 34.1421 5.8578C37.7614 9.47709 40 14.4771 40 19.9999Z" fill="#4D5AE5"/>
<g clip-path="url(#clip0_649036_384)">
<path d="M23.997 11.9851H26.188V8.16906C25.81 8.11706 24.51 8.00006 22.996 8.00006C19.837 8.00006 17.673 9.98706 17.673 13.6391V17.0001H14.187V21.2661H17.673V32.0001H21.947V21.2671H25.292L25.823 17.0011H21.946V14.0621C21.947 12.8291 22.279 11.9851 23.997 11.9851Z" fill="#F4F4FD"/>
</g>
<defs>
<clipPath id="clip0_649036_384">
<rect width="24" height="24" fill="white" transform="translate(8 8.00006)"/>
</clipPath>
</defs>
</svg>
