<svg width="40" height="40" viewBox="0 0 40 40" fill="none" xmlns="http://www.w3.org/2000/svg">
<path d="M40 19.9999C40 25.5228 37.7614 30.5228 34.1421 34.1421C30.5228 37.7614 25.5228 39.9999 20 39.9999C14.4772 39.9999 9.47715 37.7614 5.85786 34.1421C2.23858 30.5228 0 25.5228 0 19.9999C0 14.4771 2.23858 9.47709 5.85786 5.8578C9.47715 2.23852 14.4772 -6.10352e-05 20 -6.10352e-05C25.5228 -6.10352e-05 30.5228 2.23852 34.1421 5.8578C37.7614 9.47709 40 14.4771 40 19.9999Z" fill="#4D5AE5"/>
<g clip-path="url(#clip0_649036_372)">
<path d="M31.9766 15.0561C31.9204 13.7809 31.7141 12.9042 31.4187 12.1445C31.114 11.3382 30.6451 10.6162 30.0309 10.0161C29.4307 9.40659 28.704 8.93298 27.907 8.633C27.1429 8.33759 26.2708 8.13137 24.9956 8.07515C23.7109 8.01416 23.303 8.00006 20.0446 8.00006C16.7861 8.00006 16.3783 8.01416 15.0983 8.07039C13.8231 8.12661 12.9464 8.33301 12.1869 8.62824C11.3803 8.93298 10.6584 9.40182 10.0583 10.0161C9.44876 10.6162 8.97534 11.3429 8.67517 12.14C8.37977 12.9042 8.17355 13.7762 8.11732 15.0514C8.05634 16.3361 8.04224 16.744 8.04224 20.0024C8.04224 23.2609 8.05634 23.6687 8.11256 24.9487C8.16879 26.2239 8.37519 27.1006 8.67059 27.8603C8.97534 28.6666 9.44876 29.3886 10.0583 29.9887C10.6584 30.5982 11.3851 31.0718 12.1821 31.3718C12.9464 31.6672 13.8183 31.8734 15.0937 31.9297C16.3735 31.9861 16.7815 32 20.04 32C23.2984 32 23.7063 31.9861 24.9863 31.9297C26.2615 31.8734 27.1382 31.6672 27.8977 31.3718C29.5106 30.7482 30.7858 29.473 31.4094 27.8603C31.7046 27.096 31.911 26.2239 31.9672 24.9487C32.0235 23.6687 32.0376 23.2609 32.0376 20.0024C32.0376 16.744 32.0328 16.3361 31.9766 15.0561ZM29.8153 24.8549C29.7637 26.027 29.5668 26.66 29.4027 27.0819C28.9994 28.1275 28.1696 28.9573 27.1241 29.3606C26.7021 29.5247 26.0646 29.7215 24.8971 29.773C23.6312 29.8294 23.2516 29.8433 20.0493 29.8433C16.8471 29.8433 16.4627 29.8294 15.2014 29.773C14.0293 29.7215 13.3964 29.5247 12.9744 29.3606C12.4541 29.1683 11.9805 28.8635 11.5961 28.465C11.1976 28.0758 10.8928 27.607 10.7005 27.0867C10.5364 26.6647 10.3396 26.027 10.2881 24.8597C10.2317 23.5938 10.2178 23.214 10.2178 20.0117C10.2178 16.8095 10.2317 16.4251 10.2881 15.164C10.3396 13.9919 10.5364 13.359 10.7005 12.937C10.8928 12.4165 11.1976 11.9431 11.6009 11.5585C11.9898 11.16 12.4587 10.8552 12.9792 10.6631C13.4011 10.499 14.0388 10.3021 15.2062 10.2505C16.472 10.1943 16.8519 10.1802 20.0539 10.1802C23.2609 10.1802 23.6405 10.1943 24.9018 10.2505C26.0739 10.3021 26.7069 10.499 27.1288 10.6631C27.6491 10.8552 28.1227 11.16 28.5072 11.5585C28.9057 11.9477 29.2104 12.4165 29.4027 12.937C29.5668 13.359 29.7637 13.9965 29.8153 15.164C29.8716 16.4299 29.8857 16.8095 29.8857 20.0117C29.8857 23.214 29.8716 23.589 29.8153 24.8549Z" fill="#F4F4FD"/>
<path d="M20.0444 13.8371C16.6407 13.8371 13.8792 16.5985 13.8792 20.0024C13.8792 23.4062 16.6407 26.1676 20.0444 26.1676C23.4483 26.1676 26.2097 23.4062 26.2097 20.0024C26.2097 16.5985 23.4483 13.8371 20.0444 13.8371ZM20.0444 24.0016C17.8363 24.0016 16.0452 22.2107 16.0452 20.0024C16.0452 17.794 17.8363 16.0031 20.0444 16.0031C22.2527 16.0031 24.0437 17.794 24.0437 20.0024C24.0437 22.2107 22.2527 24.0016 20.0444 24.0016Z" fill="#F4F4FD"/>
<path d="M27.893 13.5934C27.893 14.3882 27.2485 15.0327 26.4535 15.0327C25.6586 15.0327 25.0142 14.3882 25.0142 13.5934C25.0142 12.7983 25.6586 12.1541 26.4535 12.1541C27.2485 12.1541 27.893 12.7983 27.893 13.5934Z" fill="#F4F4FD"/>
</g>
<defs>
<clipPath id="clip0_649036_372">
<rect width="24" height="24" fill="white" transform="translate(8 8.00006)"/>
</clipPath>
</defs>
</svg>
