<svg width="40" height="40" viewBox="0 0 40 40" fill="none" xmlns="http://www.w3.org/2000/svg">
<path d="M40 19.9999C40 25.5228 37.7614 30.5228 34.1421 34.1421C30.5228 37.7614 25.5228 39.9999 20 39.9999C14.4772 39.9999 9.47715 37.7614 5.85786 34.1421C2.23858 30.5228 0 25.5228 0 19.9999C0 14.4771 2.23858 9.47709 5.85786 5.8578C9.47715 2.23852 14.4772 -6.10352e-05 20 -6.10352e-05C25.5228 -6.10352e-05 30.5228 2.23852 34.1421 5.8578C37.7614 9.47709 40 14.4771 40 19.9999Z" fill="#4D5AE5"/>
<g clip-path="url(#clip0_649036_388)">
<path d="M31.994 32.0001V31.9991H32V23.1971C32 18.8911 31.073 15.5741 26.039 15.5741C23.619 15.5741 21.995 16.9021 21.332 18.1611H21.262V15.9761H16.489V31.9991H21.459V24.0651C21.459 21.9761 21.855 19.9561 24.442 19.9561C26.991 19.9561 27.029 22.3401 27.029 24.1991V32.0001H31.994Z" fill="#F4F4FD"/>
<path d="M8.396 15.977H13.372V32H8.396V15.977Z" fill="#F4F4FD"/>
<path d="M10.882 8.00006C9.291 8.00006 8 9.29106 8 10.8821C8 12.4731 9.291 13.7911 10.882 13.7911C12.473 13.7911 13.764 12.4731 13.764 10.8821C13.763 9.29106 12.472 8.00006 10.882 8.00006V8.00006Z" fill="#F4F4FD"/>
</g>
<defs>
<clipPath id="clip0_649036_388">
<rect width="24" height="24" fill="white" transform="translate(8 8.00006)"/>
</clipPath>
</defs>
</svg>
