<svg width="40" height="40" viewBox="0 0 40 40" fill="none" xmlns="http://www.w3.org/2000/svg">
<path d="M40 19.9999C40 25.5228 37.7614 30.5228 34.1421 34.1421C30.5228 37.7614 25.5228 39.9999 20 39.9999C14.4772 39.9999 9.47715 37.7614 5.85786 34.1421C2.23858 30.5228 0 25.5228 0 19.9999C0 14.4771 2.23858 9.47709 5.85786 5.8578C9.47715 2.23852 14.4772 -6.10352e-05 20 -6.10352e-05C25.5228 -6.10352e-05 30.5228 2.23852 34.1421 5.8578C37.7614 9.47709 40 14.4771 40 19.9999Z" fill="#4D5AE5"/>
<g clip-path="url(#clip0_649036_378)">
<path d="M32 12.5586C31.1075 12.9501 30.1565 13.2096 29.165 13.3356C30.185 12.7266 30.9635 11.7696 31.3295 10.6161C30.3785 11.1831 29.3285 11.5836 28.2095 11.8071C27.3065 10.8456 26.0195 10.2501 24.6155 10.2501C21.8915 10.2501 19.6985 12.4611 19.6985 15.1716C19.6985 15.5616 19.7315 15.9366 19.8125 16.2936C15.722 16.0941 12.1025 14.1336 9.671 11.1471C9.2465 11.8836 8.9975 12.7266 8.9975 13.6341C8.9975 15.3381 9.875 16.8486 11.183 17.7231C10.3925 17.7081 9.617 17.4786 8.96 17.1171C8.96 17.1321 8.96 17.1516 8.96 17.1711C8.96 19.5621 10.6655 21.5481 12.902 22.0056C12.5015 22.1151 12.065 22.1676 11.612 22.1676C11.297 22.1676 10.979 22.1496 10.6805 22.0836C11.318 24.0321 13.127 25.4646 15.278 25.5111C13.604 26.8206 11.4785 27.6096 9.1775 27.6096C8.774 27.6096 8.387 27.5916 8 27.5421C10.1795 28.9476 12.7625 29.7501 15.548 29.7501C24.602 29.7501 29.552 22.2501 29.552 15.7491C29.552 15.5316 29.5445 15.3216 29.534 15.1131C30.5105 14.4201 31.331 13.5546 32 12.5586Z" fill="#F4F4FD"/>
</g>
<defs>
<clipPath id="clip0_649036_378">
<rect width="24" height="24" fill="white" transform="translate(8 8.00006)"/>
</clipPath>
</defs>
</svg>
